<svg width="427" height="233" viewBox="0 0 427 233" fill="none" xmlns="http://www.w3.org/2000/svg">
<g clip-path="url(#clip0_22_15)">
<path d="M293.1 33.4L557.6 275.5L273.2 355.8L3.09998 115.8L293.1 33.4Z" fill="url(#paint0_linear_22_15)"/>
<path d="M40.3999 87.5C40.3999 87.5 34.6999 72.3 47.0999 58.2L301.2 294.5C301.2 294.5 289.1 306 294.5 323.8L40.3999 87.5Z" fill="url(#paint1_linear_22_15)"/>
<path d="M296 303.7L566.9 220.5" stroke="#E7EAF3" stroke-miterlimit="10"/>
<path d="M294.1 311.8L565 228.6" stroke="#E7EAF3" stroke-miterlimit="10"/>
<path d="M572.3 211.1C572.3 211.1 560.3 225.6 565.6 240.4L294.2 324.6C294.2 324.6 289.1 311.7 301.1 294.4L572.3 211.1Z" fill="white"/>
<path d="M323.7 -27.4L572.3 211.1L301.2 294.4L47.1 58.1L323.7 -27.4Z" fill="url(#paint2_linear_22_15)"/>
<path opacity="0.09" d="M347.2 -5.00001L326.1 -25.2L140.3 32.2C143.3 34.9 147.4 37.1 152.1 38.4L320 84.3C329.6 86.9 338 84.3 338.6 78.6L347.2 -5.00001Z" fill="#3A350C"/>
<path d="M344.7 -7.3L323.6 -27.5L137.9 29.9C140.9 32.6 145 34.8 149.7 36.1L317.6 82C327.2 84.6 335.6 82 336.2 76.3L344.7 -7.3Z" fill="url(#paint3_linear_22_15)"/>
<path d="M316.9 -7.00002L302.4 -20.9L174.8 18.5C176.8 20.3 179.7 21.9 182.9 22.8L298.1 54.3C304.7 56.1 310.5 54.3 310.9 50.4L316.9 -7.00002Z" fill="url(#paint4_linear_22_15)"/>
</g>
<defs>
<linearGradient id="paint0_linear_22_15" x1="-0.0843857" y1="129.609" x2="561.505" y2="258.44" gradientUnits="userSpaceOnUse">
<stop offset="1.33195e-07" stop-color="#2D1582" stop-opacity="0"/>
<stop offset="0.0980726" stop-color="#231E73" stop-opacity="0.077677"/>
<stop offset="0.2642" stop-color="#162960" stop-opacity="0.2093"/>
<stop offset="0.3788" stop-color="#112D59" stop-opacity="0.3"/>
</linearGradient>
<linearGradient id="paint1_linear_22_15" x1="39.062" y1="190.944" x2="301.152" y2="190.944" gradientUnits="userSpaceOnUse">
<stop stop-color="#1F6CDD"/>
<stop offset="1" stop-color="#0E39A1"/>
</linearGradient>
<linearGradient id="paint2_linear_22_15" x1="47.0842" y1="133.513" x2="572.344" y2="133.513" gradientUnits="userSpaceOnUse">
<stop stop-color="#0079DD"/>
<stop offset="1" stop-color="#0E39A1"/>
</linearGradient>
<linearGradient id="paint3_linear_22_15" x1="243.505" y1="-31.6057" x2="237.88" y2="78.675" gradientUnits="userSpaceOnUse">
<stop offset="1.33195e-07" stop-color="#377DFF"/>
<stop offset="1" stop-color="#47DDFC"/>
</linearGradient>
<linearGradient id="paint4_linear_22_15" x1="247.35" y1="-23.7122" x2="243.488" y2="51.9981" gradientUnits="userSpaceOnUse">
<stop offset="1.33195e-07" stop-color="#377DFF"/>
<stop offset="1" stop-color="#47DDFC"/>
</linearGradient>
<clipPath id="clip0_22_15">
<rect width="426.5" height="232.7" fill="white"/>
</clipPath>
</defs>
</svg>
