<svg width="427" height="233" viewBox="0 0 427 233" fill="none" xmlns="http://www.w3.org/2000/svg">
<g clip-path="url(#clip0_22_15)">
<path d="M293.1 33.4L557.6 275.5L273.2 355.8L3.09998 115.8L293.1 33.4Z" fill="url(#paint0_linear_22_15)"/>
<path d="M40.3999 87.5C40.3999 87.5 34.6999 72.3 47.0999 58.2L301.2 294.5C301.2 294.5 289.1 306 294.5 323.8L40.3999 87.5Z" fill="url(#paint1_linear_22_15)"/>
<path d="M296 303.7L566.9 220.5" stroke="#E7EAF3" stroke-miterlimit="10"/>
<path d="M294.1 311.8L565 228.6" stroke="#E7EAF3" stroke-miterlimit="10"/>
<path d="M572.3 211.1C572.3 211.1 560.3 225.6 565.6 240.4L294.2 324.6C294.2 324.6 289.1 311.7 301.1 294.4L572.3 211.1Z" fill="white"/>
<path d="M323.7 -27.4L572.3 211.1L301.2 294.4L47.1 58.1L323.7 -27.4Z" fill="url(#paint2_linear_22_15)"/>
<path opacity="0.09" d="M347.2 -5.00001L326.1 -25.2L140.3 32.2C143.3 34.9 147.4 37.1 152.1 38.4L320 84.3C329.6 86.9 338 84.3 338.6 78.6L347.2 -5.00001Z" fill="#3A350C"/>
<path d="M344.7 -7.3L323.6 -27.5L137.9 29.9C140.9 32.6 145 34.8 149.7 36.1L317.6 82C327.2 84.6 335.6 82 336.2 76.3L344.7 -7.3Z" fill="url(#paint3_linear_22_15)"/>
<path d="M316.9 -7.00002L302.4 -20.9L174.8 18.5C176.8 20.3 179.7 21.9 182.9 22.8L298.1 54.3C304.7 56.1 310.5 54.3 310.9 50.4L316.9 -7.00002Z" fill="url(#paint4_linear_22_15)"/>
<path d="M257.481 130.655C256.925 131.627 256.133 132.539 255.106 133.392C254.1 134.244 252.877 134.933 251.439 135.458C250.021 135.984 248.452 136.249 246.732 136.256L243.222 136.27L239.229 143.248L235.029 143.264L245.429 125.089L253.139 125.06C254.759 125.053 256 125.291 256.862 125.773C257.724 126.254 258.191 126.919 258.265 127.768C258.358 128.616 258.097 129.578 257.481 130.655ZM248.236 133.314C249.396 133.31 250.385 133.081 251.203 132.627C252.032 132.157 252.684 131.505 253.161 130.671C254.174 128.901 253.541 128.02 251.261 128.029L247.931 128.041L244.906 133.327L248.236 133.314ZM260.527 143.4C258.927 143.406 257.661 143.107 256.729 142.505C255.806 141.885 255.298 141.012 255.203 139.887C255.129 138.761 255.514 137.461 256.358 135.985C257.203 134.51 258.318 133.206 259.703 132.075C261.109 130.944 262.636 130.072 264.283 129.459C265.941 128.829 267.57 128.511 269.17 128.505C270.77 128.499 272.041 128.806 272.983 129.426C273.936 130.028 274.459 130.892 274.553 132.018C274.668 133.143 274.303 134.443 273.458 135.919C272.614 137.395 271.479 138.698 270.053 139.829C268.648 140.961 267.106 141.841 265.429 142.471C263.781 143.084 262.147 143.393 260.527 143.4ZM262.345 140.223C263.105 140.22 263.904 140.061 264.743 139.746C265.612 139.413 266.43 138.925 267.197 138.281C267.965 137.638 268.612 136.856 269.138 135.936C269.923 134.564 270.104 133.516 269.681 132.79C269.288 132.047 268.492 131.677 267.292 131.682C266.092 131.687 264.868 132.064 263.621 132.813C262.404 133.545 261.403 134.597 260.618 135.969C259.834 137.34 259.618 138.397 259.971 139.141C260.353 139.867 261.145 140.227 262.345 140.223ZM283.585 130.917C284.562 130.152 285.605 129.55 286.713 129.113C287.841 128.675 288.965 128.454 290.085 128.45L287.895 132.278L286.785 132.282C285.465 132.287 284.311 132.56 283.323 133.101C282.355 133.642 281.489 134.58 280.724 135.917L276.612 143.104L272.412 143.12L280.666 128.694L284.866 128.678L283.585 130.917ZM295.972 131.623L291.979 138.601C291.7 139.087 291.627 139.443 291.758 139.667C291.918 139.875 292.319 139.977 292.959 139.975L294.909 139.967L293.151 143.04L290.511 143.05C286.971 143.064 286.055 141.577 287.763 138.592L291.742 131.639L289.762 131.647L291.475 128.653L293.455 128.645L295.496 125.078L299.726 125.061L297.685 128.629L301.405 128.614L299.692 131.609L295.972 131.623ZM299.249 135.767C300.083 134.309 301.153 133.015 302.459 131.884C303.784 130.753 305.191 129.881 306.678 129.269C308.186 128.657 309.65 128.349 311.07 128.343C312.31 128.338 313.266 128.551 313.937 128.982C314.629 129.412 315.066 129.956 315.249 130.613L316.426 128.556L320.656 128.54L312.401 142.965L308.171 142.982L309.378 140.872C308.451 141.552 307.378 142.119 306.16 142.574C304.972 143.011 303.757 143.232 302.517 143.237C301.117 143.243 300.016 142.935 299.214 142.315C298.431 141.694 298.023 140.821 297.989 139.695C297.984 138.552 298.404 137.243 299.249 135.767ZM312.299 135.769C312.805 134.884 313.037 134.129 312.995 133.506C312.962 132.865 312.701 132.381 312.209 132.054C311.728 131.709 311.097 131.539 310.317 131.542C309.537 131.545 308.723 131.712 307.874 132.045C307.025 132.377 306.207 132.865 305.42 133.509C304.662 134.136 304.035 134.883 303.538 135.751C303.042 136.619 302.805 137.382 302.827 138.04C302.88 138.681 303.137 139.173 303.598 139.518C304.079 139.862 304.7 140.033 305.46 140.03C306.24 140.027 307.064 139.859 307.933 139.527C308.812 139.177 309.63 138.689 310.387 138.063C311.155 137.419 311.792 136.654 312.299 135.769ZM331.729 123.665L320.703 142.933L316.503 142.949L327.529 123.681L331.729 123.665ZM336.673 142.871L333.687 134.803L329.053 142.901L324.853 142.917L335.253 124.742L339.453 124.726L334.789 132.876L347.073 124.697L352.143 124.677L338.348 133.72L341.983 142.851L336.673 142.871ZM347.822 135.58C348.657 134.122 349.727 132.827 351.032 131.696C352.358 130.565 353.765 129.694 355.252 129.082C356.76 128.47 358.224 128.161 359.644 128.155C360.884 128.151 361.84 128.363 362.511 128.794C363.203 129.224 363.64 129.768 363.823 130.426L365 128.369L369.23 128.352L360.975 142.778L356.745 142.794L357.952 140.685C357.025 141.364 355.952 141.931 354.734 142.386C353.545 142.824 352.331 143.045 351.091 143.05C349.691 143.055 348.59 142.747 347.788 142.127C347.005 141.506 346.597 140.633 346.563 139.508C346.558 138.365 346.978 137.055 347.822 135.58ZM360.872 135.581C361.379 134.696 361.611 133.942 361.569 133.318C361.536 132.677 361.274 132.193 360.783 131.866C360.302 131.522 359.671 131.351 358.891 131.354C358.111 131.357 357.297 131.525 356.448 131.857C355.599 132.189 354.781 132.678 353.994 133.321C353.236 133.948 352.609 134.695 352.112 135.563C351.616 136.431 351.379 137.194 351.401 137.852C351.454 138.493 351.711 138.985 352.172 139.33C352.653 139.675 353.274 139.845 354.034 139.843C354.814 139.84 355.638 139.672 356.507 139.339C357.386 138.99 358.204 138.501 358.961 137.875C359.729 137.231 360.366 136.467 360.872 135.581ZM376.25 130.559C377.227 129.794 378.27 129.192 379.378 128.755C380.507 128.317 381.631 128.096 382.751 128.092L380.56 131.92L379.45 131.924C378.131 131.929 376.977 132.202 375.989 132.743C375.021 133.284 374.154 134.222 373.389 135.559L369.277 142.745L365.077 142.762L373.332 128.336L377.532 128.32L376.25 130.559ZM388.574 126.563C387.834 126.566 387.328 126.368 387.056 125.971C386.815 125.556 386.868 125.045 387.216 124.438C387.563 123.83 388.091 123.326 388.8 122.925C389.538 122.506 390.277 122.295 391.017 122.292C391.757 122.29 392.248 122.495 392.49 122.91C392.761 123.308 392.723 123.81 392.375 124.418C392.028 125.025 391.485 125.538 390.746 125.957C390.038 126.358 389.314 126.56 388.574 126.563ZM389.66 128.273L381.406 142.699L377.206 142.715L385.46 128.289L389.66 128.273ZM396.729 130.48C397.706 129.714 398.748 129.113 399.857 128.676C400.985 128.238 402.109 128.017 403.229 128.013L401.039 131.841L399.929 131.845C398.609 131.85 397.455 132.123 396.467 132.664C395.499 133.204 394.633 134.143 393.868 135.48L389.756 142.666L385.556 142.683L393.81 128.257L398.01 128.241L396.729 130.48Z" fill="#AFF9F9"/>
<rect width="6" height="28" rx="3" transform="matrix(0.49665 -0.867951 0.999992 -0.00386403 209.383 123.445)" fill="#AFF9F9"/>
<rect width="6" height="28" rx="3" transform="matrix(0.49665 -0.867951 0.999992 -0.00386403 194.416 132.163)" fill="#AFF9F9"/>
<rect width="6" height="28" rx="3" transform="matrix(0.49665 -0.867951 0.999992 -0.00386403 189.45 140.842)" fill="#AFF9F9"/>
<rect width="6" height="28" rx="3" transform="matrix(0.49665 -0.867951 0.999992 -0.00386403 194.483 149.483)" fill="#AFF9F9"/>
</g>
<defs>
<linearGradient id="paint0_linear_22_15" x1="-0.0843857" y1="129.609" x2="561.505" y2="258.44" gradientUnits="userSpaceOnUse">
<stop offset="1.33195e-07" stop-color="#2D1582" stop-opacity="0"/>
<stop offset="0.0980726" stop-color="#231E73" stop-opacity="0.077677"/>
<stop offset="0.2642" stop-color="#162960" stop-opacity="0.2093"/>
<stop offset="0.3788" stop-color="#112D59" stop-opacity="0.3"/>
</linearGradient>
<linearGradient id="paint1_linear_22_15" x1="39.062" y1="190.944" x2="301.152" y2="190.944" gradientUnits="userSpaceOnUse">
<stop stop-color="#1F6CDD"/>
<stop offset="1" stop-color="#0E39A1"/>
</linearGradient>
<linearGradient id="paint2_linear_22_15" x1="47.0842" y1="133.513" x2="572.344" y2="133.513" gradientUnits="userSpaceOnUse">
<stop stop-color="#0079DD"/>
<stop offset="1" stop-color="#0E39A1"/>
</linearGradient>
<linearGradient id="paint3_linear_22_15" x1="243.505" y1="-31.6057" x2="237.88" y2="78.675" gradientUnits="userSpaceOnUse">
<stop offset="1.33195e-07" stop-color="#377DFF"/>
<stop offset="1" stop-color="#47DDFC"/>
</linearGradient>
<linearGradient id="paint4_linear_22_15" x1="247.35" y1="-23.7122" x2="243.488" y2="51.9981" gradientUnits="userSpaceOnUse">
<stop offset="1.33195e-07" stop-color="#377DFF"/>
<stop offset="1" stop-color="#47DDFC"/>
</linearGradient>
<clipPath id="clip0_22_15">
<rect width="426.5" height="232.7" fill="white"/>
</clipPath>
</defs>
</svg>
