<svg width="208" height="45" viewBox="0 0 208 45" fill="none" xmlns="http://www.w3.org/2000/svg">
<path d="M62.34 18.54C62.34 19.66 62.07 20.71 61.53 21.69C61.01 22.67 60.18 23.46 59.04 24.06C57.92 24.66 56.5 24.96 54.78 24.96H51.27V33H47.07V12.06H54.78C56.4 12.06 57.78 12.34 58.92 12.9C60.06 13.46 60.91 14.23 61.47 15.21C62.05 16.19 62.34 17.3 62.34 18.54ZM54.6 21.57C55.76 21.57 56.62 21.31 57.18 20.79C57.74 20.25 58.02 19.5 58.02 18.54C58.02 16.5 56.88 15.48 54.6 15.48H51.27V21.57H54.6ZM72.702 33.27C71.102 33.27 69.662 32.92 68.382 32.22C67.102 31.5 66.092 30.49 65.352 29.19C64.632 27.89 64.272 26.39 64.272 24.69C64.272 22.99 64.642 21.49 65.382 20.19C66.142 18.89 67.172 17.89 68.472 17.19C69.772 16.47 71.222 16.11 72.822 16.11C74.422 16.11 75.872 16.47 77.172 17.19C78.472 17.89 79.492 18.89 80.232 20.19C80.992 21.49 81.372 22.99 81.372 24.69C81.372 26.39 80.982 27.89 80.202 29.19C79.442 30.49 78.402 31.5 77.082 32.22C75.782 32.92 74.322 33.27 72.702 33.27ZM72.702 29.61C73.462 29.61 74.172 29.43 74.832 29.07C75.512 28.69 76.052 28.13 76.452 27.39C76.852 26.65 77.052 25.75 77.052 24.69C77.052 23.11 76.632 21.9 75.792 21.06C74.972 20.2 73.962 19.77 72.762 19.77C71.562 19.77 70.552 20.2 69.732 21.06C68.932 21.9 68.532 23.11 68.532 24.69C68.532 26.27 68.922 27.49 69.702 28.35C70.502 29.19 71.502 29.61 72.702 29.61ZM88.6528 18.96C89.1928 18.08 89.8928 17.39 90.7528 16.89C91.6328 16.39 92.6328 16.14 93.7528 16.14V20.55H92.6428C91.3228 20.55 90.3228 20.86 89.6428 21.48C88.9828 22.1 88.6528 23.18 88.6528 24.72V33H84.4528V16.38H88.6528V18.96ZM101.472 19.83V27.87C101.472 28.43 101.602 28.84 101.862 29.1C102.142 29.34 102.602 29.46 103.242 29.46H105.192V33H102.552C99.0117 33 97.2417 31.28 97.2417 27.84V19.83H95.2617V16.38H97.2417V12.27H101.472V16.38H105.192V19.83H101.472ZM107.133 24.63C107.133 22.95 107.463 21.46 108.123 20.16C108.803 18.86 109.713 17.86 110.853 17.16C112.013 16.46 113.303 16.11 114.723 16.11C115.963 16.11 117.043 16.36 117.963 16.86C118.903 17.36 119.653 17.99 120.213 18.75V16.38H124.443V33H120.213V30.57C119.673 31.35 118.923 32 117.963 32.52C117.023 33.02 115.933 33.27 114.693 33.27C113.293 33.27 112.013 32.91 110.853 32.19C109.713 31.47 108.803 30.46 108.123 29.16C107.463 27.84 107.133 26.33 107.133 24.63ZM120.213 24.69C120.213 23.67 120.013 22.8 119.613 22.08C119.213 21.34 118.673 20.78 117.993 20.4C117.313 20 116.583 19.8 115.803 19.8C115.023 19.8 114.303 19.99 113.643 20.37C112.983 20.75 112.443 21.31 112.023 22.05C111.623 22.77 111.423 23.63 111.423 24.63C111.423 25.63 111.623 26.51 112.023 27.27C112.443 28.01 112.983 28.58 113.643 28.98C114.323 29.38 115.043 29.58 115.803 29.58C116.583 29.58 117.313 29.39 117.993 29.01C118.673 28.61 119.213 28.05 119.613 27.33C120.013 26.59 120.213 25.71 120.213 24.69ZM132.745 10.8V33H128.545V10.8H132.745ZM148.714 33L141.094 23.67V33H136.894V12.06H141.094V21.45L148.714 12.06H153.784L145.144 22.44L154.024 33H148.714ZM155.707 24.63C155.707 22.95 156.037 21.46 156.697 20.16C157.377 18.86 158.287 17.86 159.427 17.16C160.587 16.46 161.877 16.11 163.297 16.11C164.537 16.11 165.617 16.36 166.537 16.86C167.477 17.36 168.227 17.99 168.787 18.75V16.38H173.017V33H168.787V30.57C168.247 31.35 167.497 32 166.537 32.52C165.597 33.02 164.507 33.27 163.267 33.27C161.867 33.27 160.587 32.91 159.427 32.19C158.287 31.47 157.377 30.46 156.697 29.16C156.037 27.84 155.707 26.33 155.707 24.63ZM168.787 24.69C168.787 23.67 168.587 22.8 168.187 22.08C167.787 21.34 167.247 20.78 166.567 20.4C165.887 20 165.157 19.8 164.377 19.8C163.597 19.8 162.877 19.99 162.217 20.37C161.557 20.75 161.017 21.31 160.597 22.05C160.197 22.77 159.997 23.63 159.997 24.63C159.997 25.63 160.197 26.51 160.597 27.27C161.017 28.01 161.557 28.58 162.217 28.98C162.897 29.38 163.617 29.58 164.377 29.58C165.157 29.58 165.887 29.39 166.567 29.01C167.247 28.61 167.787 28.05 168.187 27.33C168.587 26.59 168.787 25.71 168.787 24.69ZM181.319 18.96C181.859 18.08 182.559 17.39 183.419 16.89C184.299 16.39 185.299 16.14 186.419 16.14V20.55H185.309C183.989 20.55 182.989 20.86 182.309 21.48C181.649 22.1 181.319 23.18 181.319 24.72V33H177.119V16.38H181.319V18.96ZM191.378 14.4C190.638 14.4 190.018 14.17 189.518 13.71C189.038 13.23 188.798 12.64 188.798 11.94C188.798 11.24 189.038 10.66 189.518 10.2C190.018 9.72 190.638 9.48 191.378 9.48C192.118 9.48 192.728 9.72 193.208 10.2C193.708 10.66 193.958 11.24 193.958 11.94C193.958 12.64 193.708 13.23 193.208 13.71C192.728 14.17 192.118 14.4 191.378 14.4ZM193.448 16.38V33H189.248V16.38H193.448ZM201.797 18.96C202.337 18.08 203.037 17.39 203.897 16.89C204.777 16.39 205.777 16.14 206.897 16.14V20.55H205.787C204.467 20.55 203.467 20.86 202.787 21.48C202.127 22.1 201.797 23.18 201.797 24.72V33H197.597V16.38H201.797V18.96Z" fill="white"/>
<rect x="10" y="10" width="6" height="28" rx="3" transform="rotate(-90 10 10)" fill="white"/>
<rect y="20" width="6" height="28" rx="3" transform="rotate(-90 0 20)" fill="white"/>
<rect y="30" width="6" height="28" rx="3" transform="rotate(-90 0 30)" fill="white"/>
<rect x="10" y="40" width="6" height="28" rx="3" transform="rotate(-90 10 40)" fill="white"/>
</svg>
